<svg width="39" height="28" viewBox="0 0 39 28" fill="none" xmlns="http://www.w3.org/2000/svg">
<path d="M2.85629 0C3.56075 0.000155509 4.2402 0.253776 4.76358 0.711942L17.5839 11.9265C18.7582 12.9537 18.8563 14.7147 17.8029 15.8599C17.734 15.9349 17.6608 16.0062 17.5839 16.0735L4.76358 27.288C3.58926 28.3152 1.78339 28.2196 0.730052 27.0745C0.259713 26.5627 -0.000179319 25.9006 9.28281e-08 25.2145V2.78549C9.28281e-08 1.2471 1.27879 0 2.85629 0ZM23.3233 0C24.0277 0.000166138 24.7072 0.253786 25.2305 0.711942L38.0509 11.9265C39.2252 12.9537 39.3233 14.7147 38.2699 15.8599C38.2009 15.9349 38.1278 16.0062 38.0509 16.0735L25.2305 27.288C24.0562 28.3152 22.2504 28.2196 21.197 27.0745C20.7267 26.5627 20.4668 25.9006 20.467 25.2145V2.78549C20.467 1.2471 21.7458 0 23.3233 0Z" fill="#602811"/>
</svg>
