<svg width="48" height="49" viewBox="0 0 48 49" fill="none" xmlns="http://www.w3.org/2000/svg">
<path d="M48 24.9062L31.8112 17.095L24 0.90625L48 24.9062Z" fill="#7D8138"/>
<path d="M16.1888 17.095V24.9062H0L16.1888 17.095Z" fill="#909542"/>
<path d="M24 48.9062L0 24.9062L16.1888 32.7116L24 48.9062Z" fill="#7D8138"/>
<path d="M48 24.9062L24 48.9062L31.8112 32.7116L48 24.9062Z" fill="#707429"/>
<path d="M16.1888 24.9204H24V32.7116H16.1888V24.9204Z" fill="#7D8138"/>
<path d="M16.1888 16.9158H24V24.9205H16.1888V16.9158Z" fill="#909542"/>
<path d="M24 0.90625L16.1888 17.095L0 24.9062L24 0.90625Z" fill="#909542"/>
<path d="M24 0.90625V17.095H16.1888L24 0.90625Z" fill="#909542"/>
<path d="M31.8112 17.095H24V0.90625L31.8112 17.095Z" fill="#909542"/>
<path d="M48 24.9062L31.8112 32.7116V24.9062H48Z" fill="#7D8138"/>
<path d="M48 24.9062H31.8112V17.095L48 24.9062ZM16.1888 24.9062V32.7115L0 24.9062H16.1888ZM31.8112 32.7115L24 48.9062V32.7115H31.8112Z" fill="#7D8138"/>
<path d="M24 32.7115V48.9062L16.1888 32.7115H24ZM24 17.095H31.8112V32.7115H24V17.095Z" fill="#7D8138"/>
<path d="M37.587 24.4816C36.3658 24.2043 35.4101 23.2426 35.1328 22.0273C35.1092 21.9329 34.9912 21.9329 34.9676 22.0273C34.6903 23.2485 33.7286 24.2043 32.5133 24.4816C32.4189 24.5052 32.4189 24.6231 32.5133 24.6467C33.7345 24.924 34.6903 25.8857 34.9676 27.101C34.9912 27.1954 35.1092 27.1954 35.1328 27.101C35.4101 25.8798 36.3717 24.924 37.587 24.6467C37.6755 24.6231 37.6755 24.4993 37.587 24.4816ZM33.8938 16.9594C32.9381 16.7116 32.1829 15.9565 31.9351 15.0007C31.9115 14.9063 31.7876 14.9063 31.7581 15.0007C31.5103 15.9565 30.7552 16.7116 29.7994 16.9594C29.705 16.983 29.705 17.1069 29.7994 17.1364C30.7552 17.3842 31.5103 18.1394 31.7581 19.0951C31.7817 19.1895 31.9056 19.1895 31.9351 19.0951C32.1829 18.1394 32.9381 17.3842 33.8938 17.1364C33.9882 17.1069 33.9882 16.983 33.8938 16.9594Z" fill="#B7BB71"/>
</svg>
