<svg width="48" height="48" viewBox="0 0 48 48" fill="none" xmlns="http://www.w3.org/2000/svg">
<path d="M48 24L31.8112 16.1888L24 0L48 24Z" fill="#FFE179"/>
<path d="M16.1888 16.1887V23.9999H0L16.1888 16.1887Z" fill="#FFF2AD"/>
<path d="M24 48L0 24L16.1888 31.8053L24 48Z" fill="#FFE179"/>
<path d="M48 24L24 48L31.8112 31.8053L48 24Z" fill="#EFC945"/>
<path d="M16.1888 24.0142H24V31.8053H16.1888V24.0142Z" fill="#FFE179"/>
<path d="M16.1888 16.0095H24V24.0142H16.1888V16.0095Z" fill="#FFF2AD"/>
<path d="M24 0L16.1888 16.1888L0 24L24 0Z" fill="#FFF2AD"/>
<path d="M24 0V16.1888H16.1888L24 0Z" fill="#FFF2AD"/>
<path d="M31.8112 16.1888H24V0L31.8112 16.1888Z" fill="#FFF2AD"/>
<path d="M48 24L31.8112 31.8053V24H48Z" fill="#FFE179"/>
<path d="M48 23.9999H31.8112V16.1887L48 23.9999ZM16.1888 23.9999V31.8052L0 23.9999H16.1888ZM31.8112 31.8052L24 47.9999V31.8052H31.8112Z" fill="#FFE179"/>
<path d="M24 31.8052V47.9999L16.1888 31.8052H24ZM24 16.1887H31.8112V31.8052H24V16.1887Z" fill="#FFE179"/>
<path d="M37.587 23.5753C36.3658 23.298 35.4101 22.3364 35.1328 21.121C35.1092 21.0266 34.9912 21.0266 34.9676 21.121C34.6903 22.3423 33.7286 23.298 32.5133 23.5753C32.4189 23.5989 32.4189 23.7169 32.5133 23.7405C33.7345 24.0178 34.6903 24.9794 34.9676 26.1948C34.9912 26.2892 35.1092 26.2892 35.1328 26.1948C35.4101 24.9735 36.3717 24.0178 37.587 23.7405C37.6755 23.7169 37.6755 23.593 37.587 23.5753ZM33.8938 16.0532C32.9381 15.8054 32.1829 15.0502 31.9351 14.0945C31.9115 14.0001 31.7876 14.0001 31.7581 14.0945C31.5103 15.0502 30.7552 15.8054 29.7994 16.0532C29.705 16.0768 29.705 16.2007 29.7994 16.2302C30.7552 16.478 31.5103 17.2331 31.7581 18.1889C31.7817 18.2833 31.9056 18.2833 31.9351 18.1889C32.1829 17.2331 32.9381 16.478 33.8938 16.2302C33.9882 16.2007 33.9882 16.0768 33.8938 16.0532Z" fill="#FBFFC5"/>
</svg>
