<svg width="33" height="31" viewBox="0 0 33 31" fill="none" xmlns="http://www.w3.org/2000/svg">
<path d="M16.8041 0C7.96808 0 0.804077 7.01124 0.804077 15.661C0.804077 22.5802 5.38908 28.4512 11.7461 30.5213C12.5461 30.6662 12.8401 30.1817 12.8401 29.7677C12.8401 29.3947 12.8251 28.1604 12.8181 26.8518C8.36608 27.7993 7.42708 25.0038 7.42708 25.0038C6.69908 23.194 5.65108 22.7124 5.65108 22.7124C4.19908 21.7404 5.76108 21.76 5.76108 21.76C7.36708 21.8706 8.21308 23.3741 8.21308 23.3741C9.64008 25.7682 11.9561 25.0762 12.8691 24.6759C13.0121 23.6638 13.4271 22.9727 13.8851 22.5812C10.3311 22.1858 6.59508 20.8419 6.59508 14.8417C6.59508 13.1318 7.22008 11.735 8.24408 10.6377C8.07808 10.2433 7.53008 8.65075 8.39908 6.49345C8.39908 6.49345 9.74308 6.07256 12.8001 8.0987C14.0761 7.75122 15.4451 7.57797 16.8051 7.57112C18.1641 7.57699 19.5341 7.75122 20.8131 8.0987C23.8671 6.07256 25.2081 6.49345 25.2081 6.49345C26.0791 8.65075 25.5311 10.2433 25.3651 10.6377C26.3911 11.734 27.0121 13.1318 27.0121 14.8417C27.0121 20.8565 23.2691 22.1809 19.7061 22.5695C20.2801 23.0559 20.7911 24.0083 20.7911 25.4697C20.7911 27.5653 20.7721 29.2518 20.7721 29.7677C20.7721 30.1846 21.0601 30.6731 21.8711 30.5194C28.2251 28.4463 32.8041 22.5783 32.8041 15.661C32.8041 7.01124 25.6401 0 16.8041 0Z" fill="#F1A970"/>
</svg>
