<svg width="33" height="33" viewBox="0 0 33 33" fill="none" xmlns="http://www.w3.org/2000/svg">
<path d="M16.9021 0C8.06339 0 0.9021 7.22993 0.9021 16.1534C0.9021 25.0768 8.06339 32.3067 16.9021 32.3067C25.7408 32.3067 32.9021 25.0768 32.9021 16.1534C32.9021 7.22993 25.7408 0 16.9021 0ZM24.7602 11.0664L22.1344 23.5592C21.9408 24.445 21.4182 24.6599 20.6892 24.2431L16.6892 21.2664L14.7602 23.1423C14.5473 23.3572 14.3666 23.5396 13.9537 23.5396L14.2376 19.4296L21.6505 12.6687C21.9731 12.3821 21.5795 12.2192 21.1537 12.5058L11.9924 18.3289L8.04403 17.0848C7.18597 16.8112 7.16662 16.2185 8.22468 15.8016L23.6505 9.79623C24.3666 9.5357 24.9924 9.9721 24.7602 11.0664Z" fill="#F1A970"/>
</svg>
