<svg width="32" height="33" viewBox="0 0 32 33" fill="none" xmlns="http://www.w3.org/2000/svg">
<path d="M18.2263 8.97089C16.6354 9.55587 15.632 11.0616 15.7463 12.7104L15.7829 13.3461L15.1463 13.2688C12.832 12.97 10.8091 11.957 9.09029 10.2551L8.25029 9.4128L8.03543 10.0359C7.57829 11.4239 7.86971 12.8927 8.82514 13.8792C9.33257 14.425 9.21829 14.5023 8.34286 14.1792C8.03543 14.0753 7.76914 13.9957 7.744 14.0361C7.65486 14.1284 7.96114 15.3076 8.20229 15.7749C8.53371 16.4268 9.20571 17.0614 9.94514 17.4399L10.5691 17.7399L9.83086 17.7491C9.11657 17.7491 9.09143 17.7629 9.16914 18.0352C9.42171 18.8798 10.4274 19.7775 11.5474 20.1652L12.3371 20.4386L11.6514 20.8551C10.6124 21.4598 9.43903 21.79 8.24 21.8151C7.66629 21.829 7.19543 21.8797 7.19543 21.919C7.19543 22.047 8.74971 22.7751 9.65029 23.0624C12.3611 23.9047 15.5794 23.5401 17.9966 22.1001C19.7143 21.0744 21.432 19.0356 22.2343 17.0603C22.6663 16.0103 23.0983 14.088 23.0983 13.1661C23.0983 12.5685 23.1371 12.49 23.8491 11.777C24.2697 11.3593 24.6629 10.9058 24.7406 10.7754C24.8674 10.5297 24.8526 10.5297 24.2057 10.7501C23.1257 11.1401 22.9714 11.0893 23.5063 10.5043C23.9006 10.0889 24.3714 9.33434 24.3714 9.11511C24.3714 9.07704 24.1806 9.14165 23.9646 9.25819C23.736 9.38741 23.2263 9.58241 22.8457 9.69894L22.1577 9.92047L21.5349 9.48895C21.192 9.25819 20.7074 8.99512 20.4549 8.91781C19.8034 8.73551 18.8114 8.76205 18.2263 8.97089ZM16 0C24.8377 0 32 7.23094 32 16.1534C32 25.0735 24.8377 32.3067 16 32.3067C7.16229 32.3067 0 25.0735 0 16.1534C0 7.23094 7.16229 0 16 0Z" fill="#F1A970"/>
</svg>
